{
    "asset" : {
        "generator" : "Khronos glTF Blender I/O v1.7.33",
        "version" : "2.0"
    },
    "scene" : 0,
    "scenes" : [
        {
            "name" : "Scene",
            "nodes" : [
                0,
                4
            ]
        }
    ],
    "nodes" : [
        {
            "mesh" : 0,
            "name" : "Cube"
        },
        {
            "name" : "Bone.001",
            "translation" : [
                0,
                1,
                0
            ]
        },
        {
            "children" : [
                1
            ],
            "name" : "Bone"
        },
        {
            "mesh" : 1,
            "name" : "Arm",
            "skin" : 0
        },
        {
            "children" : [
                3,
                2
            ],
            "name" : "Armature"
        }
    ],
    "animations" : [
        {
            "channels" : [
                {
                    "sampler" : 0,
                    "target" : {
                        "node" : 0,
                        "path" : "translation"
                    }
                },
                {
                    "sampler" : 1,
                    "target" : {
                        "node" : 0,
                        "path" : "rotation"
                    }
                },
                {
                    "sampler" : 2,
                    "target" : {
                        "node" : 0,
                        "path" : "scale"
                    }
                }
            ],
            "name" : "Shit",
            "samplers" : [
                {
                    "input" : 11,
                    "interpolation" : "LINEAR",
                    "output" : 12
                },
                {
                    "input" : 13,
                    "interpolation" : "LINEAR",
                    "output" : 14
                },
                {
                    "input" : 13,
                    "interpolation" : "LINEAR",
                    "output" : 15
                }
            ]
        },
        {
            "channels" : [
                {
                    "sampler" : 0,
                    "target" : {
                        "node" : 2,
                        "path" : "translation"
                    }
                },
                {
                    "sampler" : 1,
                    "target" : {
                        "node" : 2,
                        "path" : "rotation"
                    }
                },
                {
                    "sampler" : 2,
                    "target" : {
                        "node" : 2,
                        "path" : "scale"
                    }
                },
                {
                    "sampler" : 3,
                    "target" : {
                        "node" : 1,
                        "path" : "translation"
                    }
                },
                {
                    "sampler" : 4,
                    "target" : {
                        "node" : 1,
                        "path" : "rotation"
                    }
                },
                {
                    "sampler" : 5,
                    "target" : {
                        "node" : 1,
                        "path" : "scale"
                    }
                }
            ],
            "name" : "ArmBend",
            "samplers" : [
                {
                    "input" : 13,
                    "interpolation" : "LINEAR",
                    "output" : 16
                },
                {
                    "input" : 13,
                    "interpolation" : "LINEAR",
                    "output" : 17
                },
                {
                    "input" : 13,
                    "interpolation" : "LINEAR",
                    "output" : 18
                },
                {
                    "input" : 13,
                    "interpolation" : "LINEAR",
                    "output" : 19
                },
                {
                    "input" : 11,
                    "interpolation" : "LINEAR",
                    "output" : 20
                },
                {
                    "input" : 13,
                    "interpolation" : "LINEAR",
                    "output" : 21
                }
            ]
        }
    ],
    "materials" : [
        {
            "doubleSided" : true,
            "name" : "Material",
            "pbrMetallicRoughness" : {
                "baseColorFactor" : [
                    0.800000011920929,
                    0.800000011920929,
                    0.800000011920929,
                    1
                ],
                "metallicFactor" : 0,
                "roughnessFactor" : 0.4000000059604645
            }
        }
    ],
    "meshes" : [
        {
            "name" : "Cube",
            "primitives" : [
                {
                    "attributes" : {
                        "POSITION" : 0,
                        "NORMAL" : 1,
                        "TEXCOORD_0" : 2
                    },
                    "indices" : 3,
                    "material" : 0
                }
            ]
        },
        {
            "name" : "Arm",
            "primitives" : [
                {
                    "attributes" : {
                        "POSITION" : 4,
                        "NORMAL" : 5,
                        "TEXCOORD_0" : 6,
                        "JOINTS_0" : 7,
                        "WEIGHTS_0" : 8
                    },
                    "indices" : 9
                }
            ]
        }
    ],
    "skins" : [
        {
            "inverseBindMatrices" : 10,
            "joints" : [
                2,
                1
            ],
            "name" : "Armature"
        }
    ],
    "accessors" : [
        {
            "bufferView" : 0,
            "componentType" : 5126,
            "count" : 24,
            "max" : [
                0.5,
                0.5,
                0.5
            ],
            "min" : [
                -0.5,
                -0.5,
                -0.5
            ],
            "type" : "VEC3"
        },
        {
            "bufferView" : 1,
            "componentType" : 5126,
            "count" : 24,
            "type" : "VEC3"
        },
        {
            "bufferView" : 2,
            "componentType" : 5126,
            "count" : 24,
            "type" : "VEC2"
        },
        {
            "bufferView" : 3,
            "componentType" : 5123,
            "count" : 36,
            "type" : "SCALAR"
        },
        {
            "bufferView" : 4,
            "componentType" : 5126,
            "count" : 80,
            "max" : [
                0.25,
                2,
                0.25
            ],
            "min" : [
                -0.25,
                0,
                -0.25
            ],
            "type" : "VEC3"
        },
        {
            "bufferView" : 5,
            "componentType" : 5126,
            "count" : 80,
            "type" : "VEC3"
        },
        {
            "bufferView" : 6,
            "componentType" : 5126,
            "count" : 80,
            "type" : "VEC2"
        },
        {
            "bufferView" : 7,
            "componentType" : 5121,
            "count" : 80,
            "type" : "VEC4"
        },
        {
            "bufferView" : 8,
            "componentType" : 5126,
            "count" : 80,
            "type" : "VEC4"
        },
        {
            "bufferView" : 9,
            "componentType" : 5123,
            "count" : 204,
            "type" : "SCALAR"
        },
        {
            "bufferView" : 10,
            "componentType" : 5126,
            "count" : 2,
            "type" : "MAT4"
        },
        {
            "bufferView" : 11,
            "componentType" : 5126,
            "count" : 11,
            "max" : [
                0.4166666666666667
            ],
            "min" : [
                0
            ],
            "type" : "SCALAR"
        },
        {
            "bufferView" : 12,
            "componentType" : 5126,
            "count" : 11,
            "type" : "VEC3"
        },
        {
            "bufferView" : 13,
            "componentType" : 5126,
            "count" : 2,
            "max" : [
                0.4166666666666667
            ],
            "min" : [
                0
            ],
            "type" : "SCALAR"
        },
        {
            "bufferView" : 14,
            "componentType" : 5126,
            "count" : 2,
            "type" : "VEC4"
        },
        {
            "bufferView" : 15,
            "componentType" : 5126,
            "count" : 2,
            "type" : "VEC3"
        },
        {
            "bufferView" : 16,
            "componentType" : 5126,
            "count" : 2,
            "type" : "VEC3"
        },
        {
            "bufferView" : 17,
            "componentType" : 5126,
            "count" : 2,
            "type" : "VEC4"
        },
        {
            "bufferView" : 18,
            "componentType" : 5126,
            "count" : 2,
            "type" : "VEC3"
        },
        {
            "bufferView" : 19,
            "componentType" : 5126,
            "count" : 2,
            "type" : "VEC3"
        },
        {
            "bufferView" : 20,
            "componentType" : 5126,
            "count" : 11,
            "type" : "VEC4"
        },
        {
            "bufferView" : 21,
            "componentType" : 5126,
            "count" : 2,
            "type" : "VEC3"
        }
    ],
    "bufferViews" : [
        {
            "buffer" : 0,
            "byteLength" : 288,
            "byteOffset" : 0
        },
        {
            "buffer" : 0,
            "byteLength" : 288,
            "byteOffset" : 288
        },
        {
            "buffer" : 0,
            "byteLength" : 192,
            "byteOffset" : 576
        },
        {
            "buffer" : 0,
            "byteLength" : 72,
            "byteOffset" : 768
        },
        {
            "buffer" : 0,
            "byteLength" : 960,
            "byteOffset" : 840
        },
        {
            "buffer" : 0,
            "byteLength" : 960,
            "byteOffset" : 1800
        },
        {
            "buffer" : 0,
            "byteLength" : 640,
            "byteOffset" : 2760
        },
        {
            "buffer" : 0,
            "byteLength" : 320,
            "byteOffset" : 3400
        },
        {
            "buffer" : 0,
            "byteLength" : 1280,
            "byteOffset" : 3720
        },
        {
            "buffer" : 0,
            "byteLength" : 408,
            "byteOffset" : 5000
        },
        {
            "buffer" : 0,
            "byteLength" : 128,
            "byteOffset" : 5408
        },
        {
            "buffer" : 0,
            "byteLength" : 44,
            "byteOffset" : 5536
        },
        {
            "buffer" : 0,
            "byteLength" : 132,
            "byteOffset" : 5580
        },
        {
            "buffer" : 0,
            "byteLength" : 8,
            "byteOffset" : 5712
        },
        {
            "buffer" : 0,
            "byteLength" : 32,
            "byteOffset" : 5720
        },
        {
            "buffer" : 0,
            "byteLength" : 24,
            "byteOffset" : 5752
        },
        {
            "buffer" : 0,
            "byteLength" : 24,
            "byteOffset" : 5776
        },
        {
            "buffer" : 0,
            "byteLength" : 32,
            "byteOffset" : 5800
        },
        {
            "buffer" : 0,
            "byteLength" : 24,
            "byteOffset" : 5832
        },
        {
            "buffer" : 0,
            "byteLength" : 24,
            "byteOffset" : 5856
        },
        {
            "buffer" : 0,
            "byteLength" : 176,
            "byteOffset" : 5880
        },
        {
            "buffer" : 0,
            "byteLength" : 24,
            "byteOffset" : 6056
        }
    ],
    "buffers" : [
        {
            "byteLength" : 6080,
            "uri" : "Cube.bin"
        }
    ]
}
